<?xml version="1.0" encoding="iso-8859-1"?>
<!-- Generator: Adobe Illustrator 19.0.0, SVG Export Plug-In . SVG Version: 6.00 Build 0)  -->
<svg version="1.1" id="Capa_1" xmlns="http://www.w3.org/2000/svg" xmlns:xlink="http://www.w3.org/1999/xlink" x="0px" y="0px"
	 viewBox="0 0 483.319 483.319" style="enable-background:new 0 0 483.319 483.319;" xml:space="preserve">
<path style="fill:#FAE249;" d="M385.657,161.659h-128l72-152h-160l-40,216h104l-96,248L385.657,161.659z"/>
<path d="M1.657,233.659h80v16h-80V233.659z"/>
<path d="M401.657,233.659h80v16h-80V233.659z"/>
<path d="M416.006,60.002l56-56l11.313,11.313l-56,56L416.006,60.002z"/>
<path d="M0.036,460.003l56-56l11.313,11.313l-56,56L0.036,460.003z"/>
<path d="M416.003,423.319l11.313-11.313l56,56l-11.313,11.313L416.003,423.319z"/>
<path d="M0,15.312L11.313,3.999l56,56L56,71.312L0,15.312z"/>
<path d="M336.415,5.378c-1.466-2.316-4.017-3.719-6.758-3.719h-160c-3.858-0.001-7.167,2.753-7.867,6.547l-40,216
	c-0.802,4.346,2.072,8.519,6.417,9.32c0.478,0.088,0.963,0.133,1.45,0.133h92.328l-91.789,237.109
	c-1.595,4.121,0.452,8.755,4.573,10.351c3.266,1.264,6.974,0.258,9.153-2.484l248-312c2.747-3.462,2.167-8.496-1.295-11.243
	c-1.414-1.122-3.165-1.733-4.97-1.733H270.298l66.586-140.578C338.062,10.603,337.885,7.694,336.415,5.378z M250.431,158.237
	c-1.892,3.99-0.192,8.758,3.798,10.651c1.071,0.508,2.242,0.772,3.428,0.771h111.422l-205,257.898l77.039-199.008
	c1.597-4.118-0.446-8.752-4.564-10.349c-0.924-0.358-1.906-0.542-2.896-0.541h-94.383l37.039-200h140.703L250.431,158.237z"/>
<g>
</g>
<g>
</g>
<g>
</g>
<g>
</g>
<g>
</g>
<g>
</g>
<g>
</g>
<g>
</g>
<g>
</g>
<g>
</g>
<g>
</g>
<g>
</g>
<g>
</g>
<g>
</g>
<g>
</g>
</svg>
